<svg width="17" height="17" viewBox="0 0 17 17" fill="none" xmlns="http://www.w3.org/2000/svg">
<path fill-rule="evenodd" clip-rule="evenodd" d="M6.88776 8.95249C8.77309 8.95249 10.2843 7.42168 10.2843 5.51194C10.2843 3.60223 8.77309 2.07141 6.88776 2.07141C5.00244 2.07141 3.49117 3.60223 3.49117 5.51194C3.49117 7.42168 5.00244 8.95249 6.88776 8.95249ZM6.88776 10.6372C4.1187 10.6372 1.75452 11.08 1.75452 12.8488C1.75452 14.6169 4.10431 15.0756 6.88776 15.0756C9.65615 15.0756 12.021 14.6329 12.021 12.864C12.021 11.0952 9.6712 10.6372 6.88776 10.6372ZM14.0044 6.92257H14.8279C15.1668 6.92257 15.4432 7.20281 15.4432 7.54653C15.4432 7.89018 15.1668 8.17045 14.8279 8.17045H14.0044V8.97623C14.0044 9.31996 13.7288 9.60016 13.3892 9.60016C13.0502 9.60016 12.7739 9.31996 12.7739 8.97623V8.17045H11.9519C11.6122 8.17045 11.3366 7.89018 11.3366 7.54653C11.3366 7.20281 11.6122 6.92257 11.9519 6.92257H12.7739V6.11751C12.7739 5.77381 13.0502 5.49357 13.3892 5.49357C13.7288 5.49357 14.0044 5.77381 14.0044 6.11751V6.92257Z" fill="white"/>
</svg>
