<svg width="48" height="49" viewBox="0 0 48 49" fill="none" xmlns="http://www.w3.org/2000/svg">
<path fill-rule="evenodd" clip-rule="evenodd" d="M32.8218 5.91713L32.8238 7.41637C38.333 7.84815 41.9724 11.6023 41.9782 17.3594L42 34.2109C42.0078 40.4879 38.0644 44.3499 31.7436 44.3599L16.3038 44.3799C10.0224 44.3879 6.02963 40.4339 6.02173 34.1389L6.00001 17.4853C5.99211 11.6902 9.50305 7.94611 15.0123 7.44037L15.0104 5.94111C15.0084 5.06155 15.66 4.39989 16.5289 4.39989C17.3977 4.39789 18.0494 5.05755 18.0513 5.93711L18.0533 7.33641L29.7828 7.32043L29.7808 5.92113C29.7788 5.04157 30.4304 4.38189 31.2994 4.37989C32.1484 4.37789 32.8198 5.03757 32.8218 5.91713ZM9.04295 18.103L38.9392 18.063V17.3634C38.8544 13.0655 36.698 10.8107 32.8276 10.4748L32.8296 12.0141C32.8296 12.8736 32.1602 13.5553 31.3112 13.5553C30.4424 13.5573 29.7886 12.8776 29.7886 12.0181L29.7868 10.3989L18.0573 10.4149L18.0592 12.0321C18.0592 12.8936 17.4096 13.5733 16.5407 13.5733C15.6719 13.5753 15.0183 12.8976 15.0183 12.0361L15.0163 10.4968C11.1657 10.8826 9.03505 13.1455 9.04097 17.4813L9.04295 18.103ZM30.4798 27.1885V27.2105C30.4996 28.1301 31.25 28.8277 32.1602 28.8077C33.0488 28.7857 33.7578 28.0241 33.738 27.1045C33.6966 26.2249 32.9836 25.5073 32.097 25.5093C31.1888 25.5293 30.4778 26.2689 30.4798 27.1885ZM32.1108 36.1639C31.2026 36.1439 30.47 35.3863 30.468 34.4669C30.4482 33.5473 31.1768 32.7857 32.0852 32.7637H32.105C33.033 32.7637 33.7854 33.5213 33.7854 34.4609C33.7874 35.4003 33.037 36.1619 32.1108 36.1639ZM22.3442 27.2205C22.3838 28.1401 23.136 28.8577 24.0444 28.8177C24.933 28.7757 25.642 28.0161 25.6024 27.0965C25.5806 26.1969 24.85 25.4973 23.9614 25.4993C23.0532 25.5393 22.3422 26.3009 22.3442 27.2205ZM24.0524 36.0741C23.144 36.1141 22.3936 35.3963 22.3522 34.4769C22.3522 33.5573 23.061 32.7977 23.9694 32.7557C24.858 32.7537 25.5906 33.4533 25.6104 34.3509C25.6518 35.2725 24.941 36.0321 24.0524 36.0741ZM14.2087 27.2905C14.2482 28.2099 15.0005 28.9297 15.9088 28.8877C16.7974 28.8477 17.5063 28.0861 17.4649 27.1665C17.4451 26.2669 16.7145 25.5673 15.8239 25.5693C14.9156 25.6093 14.2067 26.3709 14.2087 27.2905ZM15.9167 36.0841C15.0084 36.1261 14.258 35.4063 14.2166 34.4869C14.2146 33.5673 14.9255 32.8057 15.8338 32.7657C16.7224 32.7637 17.455 33.4633 17.4747 34.3629C17.5162 35.2825 16.8073 36.0441 15.9167 36.0841Z" fill="white"/>
</svg>
