<svg width="32" height="33" viewBox="0 0 32 33" fill="none" xmlns="http://www.w3.org/2000/svg">
<path d="M16 0.379883C7.1808 0.379883 0 7.56068 0 16.3799C0 25.1991 7.1808 32.3799 16 32.3799C24.8192 32.3799 32 25.2055 32 16.3799C32 7.55428 24.8256 0.379883 16 0.379883ZM20.4352 9.87108C20.4352 10.0055 20.3264 10.1143 20.192 10.1143H18.2656C17.792 10.1143 17.408 10.4983 17.408 10.9719V12.9879H20.1472C20.1536 12.9879 20.16 12.9879 20.1664 12.9879C20.3008 13.0007 20.3968 13.1159 20.384 13.2503L20.1408 16.0919C20.128 16.2199 20.0256 16.3159 19.8976 16.3159H17.4016V25.7431C17.4016 25.8775 17.2928 25.9863 17.1584 25.9863H13.7152C13.5808 25.9863 13.472 25.8775 13.472 25.7431V16.4567V16.3031H11.7504C11.616 16.3031 11.5072 16.1943 11.5072 16.0599V13.2183C11.5072 13.0839 11.616 12.9751 11.7504 12.9751H13.472V10.2359C13.472 8.32868 15.0208 6.77988 16.928 6.77988H20.1792C20.3136 6.77988 20.4224 6.88868 20.4224 7.02308V9.87108H20.4352Z" fill="#5D50C6"/>
</svg>
