<svg width="133" height="20" viewBox="0 0 133 20" fill="none" xmlns="http://www.w3.org/2000/svg">
<path d="M14.2508 12.0168C15.3893 15.1016 18.8209 16.6806 21.9065 15.5446C24.9904 14.4008 26.5729 10.9727 25.4299 7.88708C24.2905 4.79794 20.8642 3.22159 17.7742 4.36016C14.6868 5.50315 13.1104 8.92945 14.2508 12.0168Z" fill="white"/>
<path d="M6.63005 15.8889C9.92134 15.8889 12.5895 13.2208 12.5895 9.92949C12.5895 6.63821 9.92134 3.97009 6.63005 3.97009C3.33877 3.97009 0.670654 6.63821 0.670654 9.92949C0.670654 13.2208 3.33877 15.8889 6.63005 15.8889Z" fill="white"/>
<path d="M7.64612 9.86591C7.64612 10.4732 7.15274 10.9709 6.5455 10.9709C5.93561 10.9709 5.44312 10.474 5.44312 9.86591C5.44312 9.25956 5.93561 8.76794 6.5455 8.76794C7.15274 8.76883 7.64612 9.25956 7.64612 9.86591Z" fill="#191825" fill-opacity="0.5"/>
<path d="M20.9266 9.86591C20.9266 10.4732 20.435 10.9709 19.8277 10.9709C19.2161 10.9709 18.7253 10.474 18.7253 9.86591C18.7253 9.25956 19.2161 8.76794 19.8277 8.76794C20.4358 8.76883 20.9266 9.25956 20.9266 9.86591Z" fill="#191825" fill-opacity="0.5"/>
<path d="M3.271 9.86584C3.271 11.6726 4.74055 13.1395 6.54725 13.1395C8.34955 13.1395 9.81822 11.6726 9.81822 9.86584C9.81822 8.06355 8.34867 6.59576 6.54725 6.59576C4.74143 6.59753 3.271 8.06443 3.271 9.86584ZM4.39986 9.86584C4.39986 8.68403 5.36544 7.72286 6.54902 7.72286C7.73084 7.72286 8.69112 8.68667 8.69112 9.86584C8.69112 11.0512 7.73084 12.0141 6.54902 12.0141C5.36544 12.015 4.39986 11.053 4.39986 9.86584Z" fill="#191825" fill-opacity="0.5"/>
<path d="M16.5532 9.86584C16.5532 11.6726 18.021 13.1395 19.8268 13.1395C21.63 13.1395 23.0969 11.6726 23.0969 9.86584C23.0969 8.06355 21.63 6.59576 19.8268 6.59576C18.0219 6.59753 16.5532 8.06443 16.5532 9.86584ZM17.6821 9.86584C17.6821 8.68403 18.645 7.72286 19.8295 7.72286C21.0113 7.72286 21.9707 8.68667 21.9707 9.86584C21.9707 11.0512 21.0113 12.0141 19.8295 12.0141C18.6432 12.015 17.6821 11.053 17.6821 9.86584Z" fill="#191825" fill-opacity="0.5"/>
<path d="M17.5447 3.73259C18.2349 3.4784 18.941 3.35484 19.6382 3.33542C17.7389 2.48546 15.5888 2.05475 13.2066 2.05475C10.843 2.05475 8.66119 2.49517 6.7627 3.30718C10.1987 3.37514 12.9922 6.06622 13.2331 9.4581C13.2914 8.67964 13.482 7.91 13.8183 7.18096C14.5588 5.56843 15.8836 4.34513 17.5447 3.73259Z" fill="white"/>
<path d="M25.1686 6.01418C25.4793 4.68408 26.4651 3.35311 26.4651 3.35311L22.0406 3.35046C19.5596 1.74852 16.5463 0.89856 13.2083 0.89856C9.74316 0.89856 6.6143 1.76882 4.1474 3.38223L0 3.38576C0 3.38576 0.974404 4.70174 1.2895 6.02213C0.482789 7.11921 0.00353045 8.46696 0.00353045 9.93033C0.00353045 13.5835 2.97705 16.5552 6.63195 16.5552C8.7211 16.5552 10.5843 15.5817 11.7996 14.0689L13.2109 16.1819L14.6328 14.0504C15.2727 14.8641 16.098 15.5243 17.0653 15.9718C18.6743 16.7114 20.4775 16.7847 22.1377 16.1713C25.5666 14.903 27.3274 11.0804 26.0591 7.65584C25.8367 7.05302 25.5331 6.50491 25.1686 6.01418ZM13.2074 2.05566C15.5896 2.05566 17.7396 2.48638 19.639 3.33722C18.9409 3.35575 18.2357 3.4802 17.5455 3.73263C15.8844 4.34516 14.5596 5.56846 13.8208 7.17835C13.4846 7.90739 13.2948 8.67702 13.2357 9.45549C12.9929 6.06537 10.1995 3.37429 6.76346 3.30456C8.66108 2.49521 10.842 2.05566 13.2074 2.05566ZM11.0115 12.8906C10.06 14.294 8.45013 15.2189 6.63019 15.2189C3.71227 15.2189 1.33804 12.843 1.33804 9.93122C1.33804 7.01153 3.71315 4.63995 6.63019 4.63995C9.54722 4.63995 11.9214 7.01153 11.9214 9.93122C11.9214 10.1095 11.887 10.2772 11.8685 10.4493C11.7802 11.3434 11.4925 12.181 11.0115 12.8906ZM21.6743 14.9171C20.3486 15.4043 18.9109 15.3505 17.6267 14.7582C16.7158 14.3363 15.97 13.6753 15.4325 12.8544C15.2136 12.5226 15.0212 12.1704 14.8791 11.7847C14.7176 11.3487 14.6372 10.8994 14.594 10.4467C14.5057 9.52875 14.639 8.60024 15.0344 7.73969C15.6275 6.45549 16.6831 5.47844 18.0088 4.9877C20.7467 3.97799 23.7944 5.38223 24.8058 8.11921C25.8164 10.8562 24.4113 13.9039 21.6743 14.9171Z" fill="#191825" fill-opacity="0.5"/>
<path d="M34.2824 1.86678L32.3424 2.53668C32.3424 2.53668 32.3424 4.85972 32.3424 5.06801C32.1394 5.06801 30.1924 5.06801 30.1924 5.06801V6.76528C30.1924 6.76528 32.0794 6.76528 32.2842 6.76528C32.2842 6.98593 32.2842 12.2145 32.2842 12.2145C32.2842 14.8041 33.1659 15.8668 35.3345 15.8668C35.8844 15.8668 36.4095 15.7988 36.9364 15.6549L37.022 15.6338L36.9982 13.8738L36.8499 13.9303C36.4236 14.0777 36.09 14.1501 35.8323 14.1501C34.8137 14.1501 34.436 13.5773 34.436 12.0309C34.436 12.0309 34.436 6.98505 34.436 6.76792C34.6425 6.76792 36.917 6.76792 36.917 6.76792V5.06801C36.917 5.06801 34.6434 5.06801 34.436 5.06801C34.436 4.85795 34.436 1.81647 34.436 1.81647L34.2824 1.86678Z" fill="#191825" fill-opacity="0.5"/>
<path d="M40.9902 6.78734C40.9902 6.18981 40.9902 5.06801 40.9902 5.06801H39.022V15.6797H41.1738V10.3531C41.1738 8.12009 42.112 6.88972 43.8119 6.88972C44.0582 6.88972 44.2973 6.92679 44.5886 7.00888L44.7281 7.04859L44.7987 4.95415L43.8728 4.88355C42.6257 4.88266 41.6186 5.5561 40.9902 6.78734Z" fill="#191825" fill-opacity="0.5"/>
<path d="M48.6337 5.06706H46.5966V15.6796H48.7484V5.06706H48.6337ZM46.3883 1.95762C46.3883 2.66371 46.9638 3.23652 47.6681 3.23652C48.3742 3.23652 48.9479 2.66371 48.9479 1.95762C48.9479 1.25241 48.3742 0.676945 47.6681 0.676945C46.9638 0.67518 46.3883 1.25241 46.3883 1.95762Z" fill="#191825" fill-opacity="0.5"/>
<path d="M56.3479 4.81818C54.8713 4.81818 53.6295 5.51721 52.8016 6.78905C52.8016 6.28067 52.8016 5.06531 52.8016 5.06531H50.8342V20H52.9878C52.9878 20 52.9878 14.7846 52.9878 14.2109C53.7645 15.2674 54.8784 15.8482 56.2649 15.8482C58.9852 15.8482 60.7424 13.6161 60.7424 10.1695C60.7424 6.9691 58.9754 4.81818 56.3479 4.81818ZM55.7468 14.1077C54.0443 14.1077 52.9869 12.6522 52.9869 10.3142C52.9869 8.05736 54.1025 6.59929 55.8289 6.59929C57.4927 6.59929 58.4874 7.98146 58.4874 10.2921C58.4882 12.6443 57.4371 14.1077 55.7468 14.1077Z" fill="#191825" fill-opacity="0.5"/>
<path d="M67.0318 4.81818C65.7158 4.81818 64.5631 5.06707 63.5058 5.57546L63.4405 5.60723L63.4634 7.44395L63.6329 7.34863C64.6435 6.78375 65.6002 6.49514 66.4713 6.49514C68.03 6.49514 68.925 7.38834 68.925 8.94969C68.925 8.94969 68.925 8.9947 68.925 9.04059C68.7353 9.04059 67.6938 9.04059 67.6938 9.04059C64.151 9.04059 62.2021 10.3239 62.2021 12.6505C62.2021 14.519 63.609 15.8252 65.6232 15.8252C67.1051 15.8252 68.2516 15.2427 69.0689 14.1465C69.0689 14.5728 69.0689 15.6787 69.0689 15.6787H71.0133V9.25683C71.0124 6.31332 69.6735 4.81818 67.0318 4.81818ZM68.9215 11.1995C68.9215 13.0274 67.8217 14.2101 66.1201 14.2101C65.0777 14.2101 64.3504 13.5251 64.3504 12.5454C64.3504 11.2577 65.5817 10.5507 67.8164 10.5507C67.8164 10.5507 68.737 10.5507 68.9232 10.5507C68.9215 10.7158 68.9215 11.1995 68.9215 11.1995Z" fill="#191825" fill-opacity="0.5"/>
<path d="M80.1516 0C80.1516 0 80.1516 5.91615 80.1516 6.5075C79.3582 5.40424 78.254 4.81995 76.8357 4.81995C74.2028 4.81995 72.4341 6.98764 72.4341 10.2092C72.4341 13.5278 74.2284 15.8455 76.7924 15.8455C78.3114 15.8455 79.4959 15.173 80.3167 13.8658C80.3167 14.3945 80.3167 15.6805 80.3167 15.6805H82.3061V0H80.1516ZM77.3502 14.0644C75.7103 14.0644 74.6918 12.6346 74.6918 10.3327C74.6918 8.02824 75.7192 6.53839 77.3114 6.53839C79.089 6.53839 80.1499 7.95587 80.1499 10.3327C80.1516 12.6037 79.0554 14.0644 77.3502 14.0644Z" fill="#191825" fill-opacity="0.5"/>
<path d="M91.9216 5.06708L88.8704 11.1951L86.0495 5.06708H83.625L88.8254 15.6796L94.1669 5.06708H91.9216Z" fill="#191825" fill-opacity="0.5"/>
<path d="M97.2995 5.06706H95.2616V15.6796H97.416V5.06706H97.2995ZM95.0559 1.95762C95.0559 2.66371 95.6305 3.23652 96.3357 3.23652C97.0444 3.23652 97.6155 2.66371 97.6155 1.95762C97.6155 1.25241 97.0427 0.676945 96.3357 0.676945C95.6314 0.67518 95.0559 1.25241 95.0559 1.95762Z" fill="#191825" fill-opacity="0.5"/>
<path d="M99.9389 7.78819C99.9389 9.28069 100.965 10.0671 102.859 10.9938C104.053 11.5808 104.677 11.9268 104.677 12.7538C104.677 13.602 103.911 14.1501 102.721 14.1501C101.88 14.1501 100.946 13.9135 100.021 13.459L99.8639 13.3813L99.7942 15.2524L99.8657 15.2789C100.75 15.6311 101.679 15.8032 102.64 15.8032C105.272 15.8032 106.971 14.549 106.971 12.6081C106.971 10.9903 105.895 10.1686 104.03 9.29834C102.664 8.65668 102.092 8.28333 102.092 7.60284C102.092 6.95853 102.729 6.53841 103.714 6.53841C104.604 6.53841 105.472 6.73611 106.294 7.12799L106.449 7.19948L106.543 5.36895L106.457 5.34423C105.566 5.07945 104.686 4.94618 103.838 4.94618C101.506 4.94264 99.9389 6.08651 99.9389 7.78819Z" fill="#191825" fill-opacity="0.5"/>
<path d="M113.685 4.81818C110.451 4.81818 108.443 6.94792 108.443 10.3725C108.443 13.7988 110.453 15.925 113.685 15.925C116.934 15.925 118.951 13.7979 118.951 10.3725C118.951 6.9488 116.932 4.81818 113.685 4.81818ZM113.704 14.1695C111.916 14.1695 110.716 12.6355 110.716 10.3522C110.716 8.05648 111.916 6.51721 113.704 6.51721C115.52 6.51721 116.693 8.02383 116.693 10.3522C116.693 12.6717 115.522 14.1695 113.704 14.1695Z" fill="#191825" fill-opacity="0.5"/>
<path d="M122.921 6.78734C122.921 6.18981 122.921 5.06801 122.921 5.06801H120.953V15.6797H123.104V10.3531C123.104 8.12009 124.037 6.88972 125.74 6.88972C125.984 6.88972 126.222 6.92679 126.508 7.00888L126.653 7.04859L126.72 4.95415L125.798 4.88355C124.556 4.88266 123.551 5.5561 122.921 6.78734Z" fill="#191825" fill-opacity="0.5"/>
<path d="M131.853 4.59757C132.207 4.95503 132.392 5.42988 132.392 5.94091C132.392 6.47489 132.192 6.95326 131.825 7.30543C131.442 7.66906 130.967 7.86412 130.471 7.86412C129.953 7.86412 129.477 7.66024 129.106 7.27718C128.752 6.91002 128.552 6.44047 128.552 5.93914C128.552 5.42811 128.756 4.93296 129.137 4.55697C129.494 4.20657 129.954 4.01593 130.471 4.01593C131.002 4.01681 131.485 4.21805 131.853 4.59757ZM129.375 4.80852C129.064 5.1192 128.899 5.51902 128.899 5.94091C128.899 6.35221 129.052 6.73085 129.349 7.0327C129.646 7.34338 130.041 7.51108 130.463 7.51108C130.875 7.51108 131.27 7.35309 131.575 7.05653C131.876 6.76792 132.041 6.37251 132.041 5.94003C132.041 5.51725 131.887 5.13332 131.596 4.83941C131.29 4.52873 130.903 4.36544 130.471 4.36544C130.046 4.36544 129.673 4.51725 129.375 4.80852ZM130.507 4.8447C131.109 4.8447 131.417 5.06271 131.417 5.45724C131.417 5.72908 131.256 5.94003 130.969 6.02652L131.442 6.95238H130.801L130.407 6.11655H130.24V6.95238H129.659V4.84382L130.507 4.8447ZM130.236 5.77321H130.438C130.696 5.77321 130.821 5.6823 130.821 5.50137C130.821 5.29484 130.69 5.2101 130.407 5.2101H130.236V5.77321Z" fill="#191825" fill-opacity="0.5"/>
</svg>
