<svg width="72" height="20" viewBox="0 0 72 20" fill="none" xmlns="http://www.w3.org/2000/svg">
<path d="M34.3553 15.648H32.1584C32.1445 15.648 32.1445 15.648 32.1376 15.6411L30.2466 13.333L28.3556 15.6411C28.3487 15.648 28.3417 15.648 28.3348 15.648H26.5759C26.562 15.648 26.555 15.641 26.5481 15.6341C26.5481 15.6271 26.5481 15.6132 26.555 15.6063L29.3428 12.1859L26.5898 8.80019C26.5829 8.78629 26.5829 8.77933 26.5829 8.76543C26.5898 8.75848 26.5968 8.75153 26.6037 8.75153H28.8006C28.8075 8.75153 28.8145 8.75848 28.8214 8.76543L30.483 10.8232L32.1723 8.76543C32.1793 8.75848 32.1862 8.75153 32.1932 8.75153H33.9799C33.9868 8.75153 34.0007 8.75848 34.0077 8.76543C34.0146 8.77933 34.0077 8.78629 34.0007 8.80019L31.3937 11.9356L34.3831 15.6063C34.3901 15.6132 34.3901 15.6271 34.3901 15.6341C34.3762 15.648 34.3692 15.648 34.3553 15.648Z" fill="#191825" fill-opacity="0.5"/>
<path d="M46.2364 9.96119C45.2632 9.96119 44.6027 10.5521 44.408 11.5741H47.7172V11.5046C47.7172 10.6912 47.1124 9.96119 46.2364 9.96119ZM49.4205 12.6308C49.4136 12.6377 49.4066 12.6447 49.3997 12.6447H44.3733C44.4776 13.8127 45.2353 14.4801 46.4659 14.4801C47.2236 14.4801 48.0301 14.2228 49.1633 13.618C49.1841 13.6041 49.205 13.6249 49.205 13.6458V15.1892C49.205 15.2031 49.198 15.21 49.1911 15.21C48.1344 15.655 47.0707 15.9608 46.2364 15.9608C44.0743 15.9608 42.5032 14.3827 42.5032 12.2137C42.5032 10.0446 44.0743 8.46649 46.2364 8.46649C48.2108 8.46649 49.4761 9.79434 49.4761 11.6227C49.4761 11.9217 49.4275 12.6099 49.4205 12.6308Z" fill="#191825" fill-opacity="0.5"/>
<path d="M59.6261 7.31939C59.0074 7.31939 58.5068 6.82579 58.5068 6.22096C58.5068 5.59527 59.0074 5.08777 59.6261 5.08777C60.2449 5.08777 60.7454 5.59527 60.7454 6.22096C60.7454 6.82579 60.2449 7.31939 59.6261 7.31939ZM58.7223 15.648C58.7015 15.648 58.6945 15.641 58.6945 15.6202V8.77238C58.6945 8.75847 58.7015 8.74457 58.7154 8.74457H60.5299C60.5438 8.74457 60.5508 8.75847 60.5508 8.77238V15.6202C60.5508 15.641 60.5368 15.648 60.5229 15.648H58.7223Z" fill="#191825" fill-opacity="0.5"/>
<path d="M37.6783 14.6191C37.3516 14.6191 37.0179 14.5704 36.6285 14.4731L36.6355 10.0794C37.0874 9.93338 37.4767 9.87081 37.866 9.87081C39.1243 9.87081 39.9655 10.7954 39.9655 12.1789C39.9655 13.6597 39.0687 14.6191 37.6783 14.6191ZM38.1719 8.46649C37.6575 8.46649 37.143 8.55687 36.6007 8.74458H34.7932C34.7793 8.74458 34.7654 8.75848 34.7654 8.77238V20C35.3076 19.9235 35.975 19.7289 36.6285 19.27V15.8566C37.0735 15.9191 37.4419 15.9608 37.7965 15.9608C40.2714 15.9608 41.8704 14.4801 41.8704 12.1859C41.8704 9.99595 40.3479 8.46649 38.1719 8.46649Z" fill="#191825" fill-opacity="0.5"/>
<path d="M55.4201 14.049C54.857 14.348 54.3495 14.487 53.8767 14.487C52.7575 14.487 52.0831 13.6945 52.0831 12.3666C52.0831 10.8372 52.9382 9.84301 54.2661 9.84301C54.6345 9.84301 54.9891 9.93339 55.4201 10.128V14.049ZM55.4201 5.12254V8.70287C54.8917 8.54992 54.426 8.4804 53.9532 8.4804C51.7981 8.4804 50.1782 10.1002 50.1782 12.2554C50.1782 14.3966 51.6104 15.9539 53.5847 15.9539C54.2661 15.9539 54.9056 15.7801 55.6565 15.3977V16.0165C56.1501 15.9191 56.7201 15.7245 57.2833 15.3213V4.38562C56.734 4.46209 56.0805 4.6498 55.4201 5.12254Z" fill="#191825" fill-opacity="0.5"/>
<path d="M66.8425 14.0351C66.2933 14.3479 65.8275 14.5009 65.4103 14.5009C64.2076 14.5009 63.4916 13.7083 63.4916 12.3805C63.4916 10.8719 64.3397 9.85686 65.598 9.85686C65.9317 9.85686 66.3419 9.98895 66.8425 10.2531V14.0351ZM68.7056 8.6611C68.7056 8.61939 68.6709 8.58463 68.6292 8.58463H67.1623C67.1205 8.58463 67.0788 8.61939 67.0788 8.6611V8.91138H67.0441C66.3697 8.61244 65.7857 8.48035 65.2226 8.48035C63.1926 8.48035 61.6006 10.1628 61.6006 12.3179C61.6006 14.4939 63.0258 15.9538 65.1462 15.9538C65.7093 15.9538 66.4392 15.9121 67.1206 15.1335V16.0164C67.6002 15.9121 68.1703 15.7105 68.7056 15.3212V8.6611Z" fill="#191825" fill-opacity="0.5"/>
<path d="M21.5565 13.9377H26.1101C26.0406 14.4452 25.8668 15.0431 25.4774 15.6479H20.7431C20.166 15.6479 19.6863 15.196 19.6307 14.6329C19.6307 14.626 19.6238 14.619 19.6238 14.6051V5.62301C19.6238 5.61606 19.6307 5.60911 19.6307 5.60216C19.6863 5.03209 20.166 4.5802 20.7431 4.5802H26.1031C26.0336 5.0877 25.8598 5.69949 25.4635 6.30432H21.5565V8.75146H25.4288C25.4427 8.75146 25.4566 8.76536 25.4566 8.77927V10.4756C25.4566 10.4895 25.4427 10.5034 25.4288 10.5034H21.5565V13.9377Z" fill="#191825" fill-opacity="0.5"/>
<path d="M15.8558 15.794C15.404 15.794 15.1259 15.4394 15.1259 15.0084C15.1259 14.5496 15.4457 14.2228 15.8558 14.2228C16.2591 14.2228 16.5789 14.5426 16.5789 15.0084C16.5789 15.4742 16.2591 15.794 15.8558 15.794ZM15.8558 14.1394C15.397 14.1394 15.0007 14.487 15.0007 15.0084C15.0007 15.502 15.3553 15.8774 15.8558 15.8774C16.3077 15.8774 16.704 15.5298 16.704 15.0084C16.704 14.487 16.3147 14.1394 15.8558 14.1394Z" fill="#191825" fill-opacity="0.5"/>
<path d="M15.654 14.9389V14.6191H15.8696C15.9808 14.6191 16.1059 14.633 16.1059 14.7651C16.1059 14.925 15.9877 14.9319 15.8556 14.9319C15.8487 14.9389 15.654 14.9389 15.654 14.9389ZM16.2589 14.7859C16.2589 14.5774 16.1337 14.487 15.8835 14.487H15.4941V15.5159H15.661V15.0779H15.8209L16.0851 15.5159H16.2797L15.9947 15.064C16.1476 15.0501 16.2589 14.9736 16.2589 14.7859Z" fill="#191825" fill-opacity="0.5"/>
<path d="M70.2072 9.88471C69.7553 9.88471 69.4772 9.53015 69.4772 9.09912C69.4772 8.64028 69.797 8.31353 70.2072 8.31353C70.6104 8.31353 70.9302 8.63333 70.9302 9.09912C70.9302 9.56491 70.6104 9.88471 70.2072 9.88471ZM70.2072 8.23706C69.7483 8.23706 69.3521 8.58467 69.3521 9.10607C69.3521 9.59967 69.7066 9.97508 70.2072 9.97508C70.659 9.97508 71.0553 9.62748 71.0553 9.10607C71.0553 8.57771 70.659 8.23706 70.2072 8.23706Z" fill="#191825" fill-opacity="0.5"/>
<path d="M69.9987 9.02959V8.71675H70.2142C70.3254 8.71675 70.4505 8.73065 70.4505 8.86274C70.4505 9.02264 70.3324 9.02959 70.2003 9.02959H69.9987ZM70.6104 8.8836C70.6104 8.67503 70.4853 8.58466 70.235 8.58466H69.8457V9.61357H70.0126V9.17558H70.1725L70.4366 9.61357H70.6313L70.3463 9.16168C70.4922 9.14778 70.6104 9.0713 70.6104 8.8836Z" fill="#191825" fill-opacity="0.5"/>
<path d="M9.9812 6.29742L9.65445 5.36584L6.8458 1.61866L7.34636 1.49352L12.1781 5.67173L15.0215 4.85833C15.3552 4.77491 15.7375 4.75405 16.0226 4.75405C15.1327 2.82832 13.492 1.24324 11.3369 0.478514C7.07522 -1.04399 2.38256 1.18763 0.867004 5.45621C0.394262 6.77711 0.28998 8.13972 0.484639 9.43281L7.29074 7.0691L9.9812 6.29742Z" fill="#191825" fill-opacity="0.5"/>
<path d="M16.3285 5.49097C16.0782 5.65086 15.7098 5.86638 15.3483 5.98457L12.4979 6.79796L10.6 12.9019L10.1064 13.0618L10.5096 8.40389L10.2871 7.43755L7.61753 8.20228L0.554199 9.84993C1.11732 12.5612 3.0361 14.9319 5.83779 15.9261C10.1064 17.4486 14.7921 15.2169 16.3146 10.9484C16.9681 9.11996 16.9264 7.20118 16.3285 5.49097Z" fill="#191825" fill-opacity="0.5"/>
<path d="M10.2802 7.43061L10.5027 8.39695L10.0995 13.0549L10.5931 12.895L12.491 6.79102L15.3414 5.97762C15.7029 5.85944 16.0713 5.65088 16.3216 5.48403C16.2312 5.23375 16.1339 4.99043 16.0227 4.7471C15.7307 4.7471 15.3553 4.76101 15.0216 4.85139L12.1782 5.66478L7.34645 1.48657L6.8459 1.61171L9.64759 5.35889L9.97434 6.29047L7.28388 7.06215L0.477783 9.42586C0.498639 9.56491 0.526448 9.7109 0.554256 9.84994L7.61063 8.18839L10.2802 7.43061Z" fill="white"/>
</svg>
