<svg width="32" height="33" viewBox="0 0 32 33" fill="none" xmlns="http://www.w3.org/2000/svg">
<path d="M16 32.3799C24.8366 32.3799 32 25.2164 32 16.3799C32 7.54333 24.8366 0.379883 16 0.379883C7.16344 0.379883 0 7.54333 0 16.3799C0 25.2164 7.16344 32.3799 16 32.3799Z" fill="#5D50C6"/>
<path d="M20.8 8.58008H11.2C9.53328 8.58008 8.19995 9.91341 8.19995 11.5801V21.1801C8.19995 22.8468 9.53328 24.1801 11.2 24.1801H20.8C22.4666 24.1801 23.8 22.8468 23.8 21.1801V11.5801C23.8 9.91341 22.4666 8.58008 20.8 8.58008ZM21.6666 10.3801H22V13.0467H19.3333V10.3801H21.6666ZM13.8 14.7801C14.2666 14.1134 15.1333 13.6467 16 13.6467C16.8666 13.6467 17.7333 14.1134 18.2 14.7801C18.5333 15.2467 18.7333 15.7801 18.7333 16.3801C18.7333 17.9134 17.4666 19.1134 16 19.1134C14.5333 19.1134 13.2666 17.9134 13.2666 16.3801C13.2666 15.7801 13.4666 15.2467 13.8 14.7801ZM22.2666 21.1801C22.2666 21.9801 21.6 22.6468 20.8 22.6468H11.2C10.4 22.6468 9.73329 21.9801 9.73329 21.1801V14.7801H12.0666C11.8666 15.2467 11.7333 15.8468 11.7333 16.3801C11.7333 18.7134 13.6666 20.6467 16 20.6467C18.3333 20.6467 20.2666 18.7134 20.2666 16.3801C20.2666 15.8468 20.1333 15.2467 19.9333 14.7801H22.2666L22.2666 21.1801Z" fill="white"/>
</svg>
