<svg width="118" height="20" viewBox="0 0 118 20" fill="none" xmlns="http://www.w3.org/2000/svg">
<mask id="mask0_4_1063" style="mask-type:luminance" maskUnits="userSpaceOnUse" x="0" y="0" width="118" height="20">
<path d="M117.933 0H0.0554199V20H117.933V0Z" fill="white"/>
</mask>
<g mask="url(#mask0_4_1063)">
<mask id="mask1_4_1063" style="mask-type:luminance" maskUnits="userSpaceOnUse" x="0" y="0" width="118" height="20">
<path d="M117.933 0H0.0554199V20H117.933V0Z" fill="white"/>
</mask>
<g mask="url(#mask1_4_1063)">
<path d="M46.2786 2.18948C46.2786 1.2018 47.0798 0.395996 48.072 0.395996C49.0597 0.395996 49.8655 1.1972 49.8655 2.18948C49.831 3.17717 48.9976 3.94843 48.0076 3.9139C47.0682 3.87936 46.3154 3.12651 46.2786 2.18948Z" fill="#191825" fill-opacity="0.5"/>
</g>
<mask id="mask2_4_1063" style="mask-type:luminance" maskUnits="userSpaceOnUse" x="0" y="0" width="118" height="20">
<path d="M117.933 0H0.0554199V20H117.933V0Z" fill="white"/>
</mask>
<g mask="url(#mask2_4_1063)">
<path d="M74.5437 14.136C74.5437 13.1415 75.3449 12.338 76.3303 12.338C77.3226 12.338 78.1261 13.1415 78.1261 14.136C78.1261 15.1283 77.3226 15.9318 76.3303 15.9318C75.3449 15.9318 74.5437 15.126 74.5437 14.136Z" fill="#191825" fill-opacity="0.5"/>
</g>
<mask id="mask3_4_1063" style="mask-type:luminance" maskUnits="userSpaceOnUse" x="0" y="0" width="118" height="20">
<path d="M117.933 0H0.0554199V20H117.933V0Z" fill="white"/>
</mask>
<g mask="url(#mask3_4_1063)">
<path d="M16.8853 13.3602C15.3451 13.3602 14.2699 12.1354 14.2699 10.3834C14.2699 8.63362 15.3428 7.4088 16.8853 7.4088C18.4348 7.4088 19.5214 8.63362 19.5214 10.3834C19.5191 12.163 18.4601 13.3602 16.8853 13.3602ZM16.8853 4.7934C13.623 4.7934 11.2539 7.14404 11.2539 10.3834C11.2539 13.6227 13.6253 15.9733 16.8853 15.9733C20.1638 15.9733 22.5397 13.6227 22.5397 10.3857C22.5397 7.14404 20.1592 4.7934 16.8853 4.7934ZM42.8114 10.6642C42.6986 10.4455 42.5536 10.2406 42.3855 10.061L42.2865 9.95743L42.3901 9.85844C42.5397 9.69958 42.694 9.51309 42.839 9.29668L45.7192 5.01442H42.222L40.0579 8.36425C39.9358 8.54613 39.6895 8.63132 39.3188 8.63132H38.8238V2.29771C38.8238 1.03145 38.0365 0.861084 37.1823 0.861084H35.7227L35.725 15.8076H38.8215V11.3273H39.1116C39.4639 11.3273 39.7033 11.3687 39.8161 11.5598L41.5244 14.7853C42.0033 15.6602 42.4776 15.8099 43.3709 15.8099H45.7514L43.981 12.8883L42.8114 10.6642ZM57.8546 4.77037C56.2775 4.77037 55.2714 5.47027 54.7096 6.06426L54.5232 6.25535L54.4564 5.99749C54.2906 5.36206 53.7335 5.01672 52.8931 5.01672H51.5049L51.5141 15.8099H54.5922V10.8369C54.5922 10.3488 54.6544 9.92981 54.7833 9.54302C55.1264 8.37806 56.0818 7.65054 57.2744 7.65054C58.2345 7.65054 58.612 8.15704 58.612 9.46935V14.1706C58.612 15.2872 59.1277 15.8122 60.249 15.8122H61.7109L61.704 8.94673C61.704 6.2093 60.371 4.77037 57.8546 4.77037ZM48.1113 5.01442H46.6516L46.6608 13.3602V15.8076H48.2172L48.2724 15.8099L49 15.8076H49.7206V15.8053H49.7275L49.7344 6.65595C49.7298 5.55085 49.2026 5.01442 48.1113 5.01442ZM28.97 13.3602C27.4298 13.3602 26.3546 12.1354 26.3546 10.3834C26.3546 8.63362 27.4298 7.4088 28.97 7.4088C30.5172 7.4088 31.6062 8.63362 31.6062 10.3834C31.6039 12.163 30.5448 13.3602 28.97 13.3602ZM28.97 4.7934C25.7054 4.7934 23.334 7.14404 23.334 10.3834C23.334 13.6227 25.7054 15.9733 28.97 15.9733C32.2416 15.9733 34.6245 13.6227 34.6245 10.3857C34.6245 7.14404 32.2439 4.7934 28.97 4.7934Z" fill="#191825" fill-opacity="0.5"/>
</g>
</g>
<mask id="mask4_4_1063" style="mask-type:luminance" maskUnits="userSpaceOnUse" x="0" y="0" width="118" height="20">
<path d="M117.933 0H0.0554199V20H117.933V0Z" fill="white"/>
</mask>
<g mask="url(#mask4_4_1063)">
<mask id="mask5_4_1063" style="mask-type:luminance" maskUnits="userSpaceOnUse" x="0" y="0" width="118" height="20">
<path d="M117.907 0.393677H0.0554199V19.9747H117.907V0.393677Z" fill="white"/>
</mask>
<g mask="url(#mask5_4_1063)">
<mask id="mask6_4_1063" style="mask-type:luminance" maskUnits="userSpaceOnUse" x="0" y="0" width="118" height="20">
<path d="M117.933 0H0.0554199V20H117.933V0Z" fill="white"/>
</mask>
<g mask="url(#mask6_4_1063)">
<path d="M94.9258 13.3602C93.3856 13.3602 92.3104 12.1354 92.3104 10.3834C92.3104 8.63362 93.3856 7.4088 94.9258 7.4088C96.4752 7.4088 97.5619 8.63362 97.5619 10.3834C97.5619 12.163 96.5006 13.3602 94.9258 13.3602ZM94.9258 4.7934C91.6612 4.7934 89.2898 7.14403 89.2898 10.3834C89.2898 13.6227 91.6566 15.9733 94.9258 15.9733C98.1997 15.9733 100.58 13.6227 100.58 10.3857C100.58 7.14404 98.1974 4.7934 94.9258 4.7934Z" fill="#191825" fill-opacity="0.5"/>
</g>
<mask id="mask7_4_1063" style="mask-type:luminance" maskUnits="userSpaceOnUse" x="0" y="0" width="118" height="20">
<path d="M117.933 0H0.0554199V20H117.933V0Z" fill="white"/>
</mask>
<g mask="url(#mask7_4_1063)">
<path d="M68.1894 12.8813C66.5064 12.8813 65.9101 11.4147 65.9101 10.0403C65.9101 9.43246 66.0644 7.4594 68.0328 7.4594C69.009 7.4594 70.3098 7.74028 70.3098 10.1393C70.3075 12.407 69.1541 12.8813 68.1894 12.8813ZM71.9053 4.98674C71.3205 4.98674 70.8716 5.21927 70.6459 5.64519L70.5631 5.81096L70.4203 5.68433C69.923 5.2538 69.032 4.745 67.5885 4.745C64.7106 4.745 62.7744 6.90454 62.7744 10.1231C62.7744 13.3371 64.7797 15.5819 67.6484 15.5819C68.6268 15.5819 69.4027 15.3517 70.0151 14.8866L70.25 14.7093V15.0086C70.25 16.4521 69.3175 17.2464 67.6276 17.2464C66.8034 17.2464 66.0575 17.0461 65.5579 16.8643C64.9063 16.6663 64.5218 16.832 64.2594 17.4836L64.013 18.0868L63.6677 18.9686L63.8818 19.0814C64.9639 19.6569 66.3729 19.9977 67.6438 19.9977C70.2638 19.9977 73.3235 18.6577 73.3235 14.882L73.3327 4.97983H71.9053" fill="#191825" fill-opacity="0.5"/>
</g>
</g>
</g>
<mask id="mask8_4_1063" style="mask-type:luminance" maskUnits="userSpaceOnUse" x="0" y="0" width="118" height="20">
<path d="M117.933 0H0.0554199V20H117.933V0Z" fill="white"/>
</mask>
<g mask="url(#mask8_4_1063)">
<mask id="mask9_4_1063" style="mask-type:luminance" maskUnits="userSpaceOnUse" x="0" y="0" width="118" height="20">
<path d="M117.933 0H0.0554199V20H117.933V0Z" fill="white"/>
</mask>
<g mask="url(#mask9_4_1063)">
<path d="M5.42666 13.2336L2.91947 13.2313V10.2383C2.91947 9.59595 3.16812 9.26672 3.71376 9.18844H5.42206C6.63997 9.18844 7.42736 9.95741 7.43196 11.2006C7.43196 12.4784 6.66299 13.2336 5.42666 13.2336ZM2.91947 5.15713V4.36975C2.91947 3.67906 3.20956 3.35213 3.8519 3.31069H5.13427C6.23247 3.31069 6.89092 3.96915 6.89092 5.06964C6.89092 5.90998 6.43967 6.88845 5.17341 6.88845H2.91947V5.15713ZM8.62224 8.1455L8.171 7.88995L8.56469 7.55151C9.02745 7.15782 9.79411 6.26683 9.79411 4.73121C9.79411 2.38057 7.973 0.865662 5.15269 0.865662H1.57033C0.734596 0.895591 0.0646291 1.57937 0.0554199 2.4151V15.75H5.21946C8.35518 15.75 10.3766 14.044 10.3766 11.4009C10.3766 9.98273 9.72044 8.76482 8.62224 8.1455Z" fill="#191825" fill-opacity="0.5"/>
</g>
<mask id="mask10_4_1063" style="mask-type:luminance" maskUnits="userSpaceOnUse" x="0" y="0" width="118" height="20">
<path d="M117.933 0H0.0554199V20H117.933V0Z" fill="white"/>
</mask>
<g mask="url(#mask10_4_1063)">
<path d="M114.325 4.80485C113.04 4.80715 111.822 5.39884 111.021 6.40725L110.798 6.68813L110.623 6.37272C110.052 5.33208 109.074 4.80716 107.706 4.80716C106.276 4.80716 105.316 5.60375 104.87 6.08032L104.579 6.39574L104.467 5.97902C104.305 5.38043 103.771 5.0512 102.966 5.0512H101.672L101.658 15.8029H104.596V11.0556C104.596 10.6389 104.646 10.2291 104.75 9.79852C105.031 8.65198 105.802 7.41795 107.098 7.53997C107.895 7.61825 108.286 8.23527 108.286 9.42555V15.8006H111.245V11.0533C111.245 10.533 111.293 10.1416 111.41 9.75478C111.645 8.65889 112.453 7.53537 113.703 7.53537C114.608 7.53537 114.944 8.04648 114.944 9.42555V14.2281C114.944 15.3125 115.428 15.8006 116.515 15.8006H117.896L117.898 8.93747C117.907 6.19314 116.699 4.80485 114.325 4.80485ZM87.5886 12.0686C87.5793 12.0778 86.3154 13.4131 84.6508 13.4131C83.1336 13.4131 81.6026 12.483 81.6026 10.4063C81.6026 8.61285 82.7906 7.3581 84.492 7.3581C85.0445 7.3581 85.6707 7.55609 85.7697 7.88762L85.7836 7.94288C85.9125 8.41485 86.343 8.73947 86.8288 8.73717L88.4381 8.73947V7.33047C88.4381 5.47252 86.0783 4.80255 84.4874 4.80255C81.0892 4.80255 78.6257 7.167 78.6257 10.4247C78.6257 13.6802 81.0639 16.0446 84.4252 16.0446C87.3422 16.0446 88.9262 14.1268 88.9423 14.1107L89.0252 14.0071L87.7497 11.8913L87.5886 12.0686Z" fill="#191825" fill-opacity="0.5"/>
</g>
</g>
</svg>
