<svg width="32" height="33" viewBox="0 0 32 33" fill="none" xmlns="http://www.w3.org/2000/svg">
<path d="M16 32.3799C24.8366 32.3799 32 25.2164 32 16.3799C32 7.54333 24.8366 0.379883 16 0.379883C7.16344 0.379883 0 7.54333 0 16.3799C0 25.2164 7.16344 32.3799 16 32.3799Z" fill="#5D50C6"/>
<path d="M25.8006 11.8784C25.115 12.1824 24.3774 12.3881 23.6039 12.4799C24.3937 12.0067 24.9998 11.2581 25.2858 10.3645C24.5468 10.8028 23.728 11.1209 22.8572 11.2923C22.1596 10.5493 21.1656 10.085 20.065 10.085C17.9532 10.085 16.2405 11.7977 16.2405 13.9094C16.2405 14.2092 16.2745 14.5009 16.3401 14.781C13.1616 14.6216 10.3434 13.0991 8.45699 10.7846C8.12785 11.3493 7.93904 12.0067 7.93904 12.7075C7.93904 14.034 8.61471 15.2051 9.64035 15.8908C9.01373 15.8711 8.42362 15.6991 7.90824 15.4119C7.90795 15.4282 7.90795 15.4444 7.90795 15.4604C7.90795 17.3135 9.22679 18.859 10.976 19.2101C10.6554 19.298 10.3169 19.3445 9.96863 19.3445C9.72163 19.3445 9.48234 19.3208 9.24903 19.2763C9.73561 20.7954 11.1477 21.9011 12.8216 21.9322C11.5125 22.9581 9.86367 23.5694 8.07138 23.5694C7.76335 23.5694 7.45817 23.5514 7.15955 23.5157C8.85116 24.6013 10.8619 25.2342 13.0216 25.2342C20.0561 25.2342 23.9031 19.4066 23.9031 14.3524C23.9031 14.1866 23.8994 14.0215 23.892 13.8578C24.6398 13.3187 25.2881 12.6453 25.8006 11.8784Z" fill="#F1F2F2"/>
</svg>
