<svg width="13" height="14" viewBox="0 0 13 14" fill="none" xmlns="http://www.w3.org/2000/svg">
<path fill-rule="evenodd" clip-rule="evenodd" d="M1.9679 6.01155C1.9679 3.6503 3.94105 1.74182 6.32776 1.74182C8.72124 1.74182 10.6944 3.6503 10.6944 6.01155C10.6944 7.20138 10.2617 8.306 9.54944 9.24231C8.76369 10.2751 7.79525 11.1749 6.70511 11.8812C6.45563 12.0444 6.23049 12.0568 5.95663 11.8812C4.86034 11.1749 3.89188 10.2751 3.11286 9.24231C2.4001 8.306 1.9679 7.20138 1.9679 6.01155ZM4.89088 6.1445C4.89088 6.93548 5.53637 7.55763 6.32776 7.55763C7.11972 7.55763 7.77143 6.93548 7.77143 6.1445C7.77143 5.35963 7.11972 4.70721 6.32776 4.70721C5.53637 4.70721 4.89088 5.35963 4.89088 6.1445Z" fill="#FACD49"/>
</svg>
