<svg width="48" height="49" viewBox="0 0 48 49" fill="none" xmlns="http://www.w3.org/2000/svg">
<path fill-rule="evenodd" clip-rule="evenodd" d="M7 21.0155C7 11.8157 14.6878 4.37988 23.9868 4.37988C33.3122 4.37988 41 11.8157 41 21.0155C41 25.6513 39.314 29.9551 36.539 33.6031C33.4776 37.6269 29.7044 41.1329 25.457 43.8847C24.485 44.5207 23.6078 44.5687 22.5408 43.8847C18.2695 41.1329 14.4962 37.6269 11.461 33.6031C8.68396 29.9551 7 25.6513 7 21.0155ZM18.3885 21.5335C18.3885 24.6153 20.9034 27.0393 23.9868 27.0393C27.0724 27.0393 29.6116 24.6153 29.6116 21.5335C29.6116 18.4755 27.0724 15.9335 23.9868 15.9335C20.9034 15.9335 18.3885 18.4755 18.3885 21.5335Z" fill="white"/>
</svg>
