<svg width="24" height="25" viewBox="0 0 24 25" fill="none" xmlns="http://www.w3.org/2000/svg">
<path fill-rule="evenodd" clip-rule="evenodd" d="M16.9395 3.37988C18.2805 3.37988 19.5705 3.90988 20.5195 4.86088C21.4695 5.80988 22.0005 7.08988 22.0005 8.42988V16.3299C22.0005 19.1199 19.7305 21.3799 16.9395 21.3799H7.06049C4.26949 21.3799 2.00049 19.1199 2.00049 16.3299V8.42988C2.00049 5.63988 4.25949 3.37988 7.06049 3.37988H16.9395ZM18.5305 9.91988L18.6105 9.83988C18.8495 9.54988 18.8495 9.12988 18.5995 8.83988C18.4605 8.69088 18.2695 8.59988 18.0705 8.57988C17.8605 8.56888 17.6605 8.63988 17.5095 8.77988L13.0005 12.3799C12.4205 12.8609 11.5895 12.8609 11.0005 12.3799L6.50049 8.77988C6.18949 8.54988 5.75949 8.57988 5.50049 8.84988C5.23049 9.11988 5.20049 9.54988 5.42949 9.84988L5.56049 9.97988L10.1105 13.5299C10.6705 13.9699 11.3495 14.2099 12.0605 14.2099C12.7695 14.2099 13.4605 13.9699 14.0195 13.5299L18.5305 9.91988Z" fill="#191825" fill-opacity="0.75"/>
</svg>
