<svg width="18" height="17" viewBox="0 0 18 17" fill="none" xmlns="http://www.w3.org/2000/svg">
<path d="M15.4875 2.02381C15.1452 1.67244 14.6385 1.54154 14.166 1.67933L3.14898 4.88306C2.65051 5.02154 2.2972 5.41908 2.20202 5.9241C2.10479 6.43807 2.44442 7.09053 2.88811 7.36336L6.33289 9.48058C6.6862 9.69761 7.14222 9.6432 7.4346 9.34828L11.3792 5.37912C11.5778 5.17243 11.9064 5.17243 12.105 5.37912C12.3036 5.57893 12.3036 5.90274 12.105 6.10944L8.15355 10.0793C7.86048 10.3735 7.80572 10.8316 8.02139 11.1871L10.1262 14.6665C10.3727 15.0798 10.7972 15.3141 11.2628 15.3141C11.3176 15.3141 11.3792 15.3141 11.434 15.3072C11.9681 15.2384 12.3926 14.8732 12.5501 14.3565L15.8162 3.35354C15.96 2.88503 15.8299 2.37519 15.4875 2.02381Z" fill="white"/>
</svg>
