<svg width="32" height="33" viewBox="0 0 32 33" fill="none" xmlns="http://www.w3.org/2000/svg">
<path d="M23.8912 19.4734C23.5459 19.808 23.3872 20.292 23.4659 20.7667L24.6512 27.3267C24.7512 27.8827 24.5165 28.4454 24.0512 28.7667C23.5952 29.1 22.9885 29.14 22.4912 28.8734L16.5859 25.7934C16.3805 25.684 16.1525 25.6254 15.9192 25.6187H15.5579C15.4325 25.6374 15.3099 25.6774 15.1979 25.7387L9.29118 28.8334C8.99918 28.98 8.66852 29.032 8.34452 28.98C7.55518 28.8307 7.02852 28.0787 7.15785 27.2854L8.34452 20.7254C8.42318 20.2467 8.26452 19.76 7.91918 19.42L3.10452 14.7534C2.70185 14.3627 2.56185 13.776 2.74585 13.2467C2.92452 12.7187 3.38052 12.3334 3.93118 12.2467L10.5578 11.2854C11.0619 11.2334 11.5045 10.9267 11.7312 10.4734L14.6512 4.48671C14.7205 4.35338 14.8099 4.23071 14.9179 4.12671L15.0379 4.03338C15.1005 3.96405 15.1725 3.90671 15.2525 3.86005L15.3979 3.80671L15.6245 3.71338H16.1859C16.6872 3.76538 17.1285 4.06538 17.3592 4.51338L20.3179 10.4734C20.5312 10.9094 20.9459 11.212 21.4245 11.2854L28.0512 12.2467C28.6112 12.3267 29.0792 12.7134 29.2645 13.2467C29.4392 13.7814 29.2885 14.368 28.8779 14.7534L23.8912 19.4734Z" fill="#FACD49"/>
</svg>
