<svg width="48" height="49" viewBox="0 0 48 49" fill="none" xmlns="http://www.w3.org/2000/svg">
<path fill-rule="evenodd" clip-rule="evenodd" d="M43.5744 21.4579C43.3036 21.7211 42.9362 21.8713 42.5494 21.8713C41.118 21.8713 39.9574 22.9989 39.9574 24.3705C39.9574 25.7515 41.1044 26.8733 42.5222 26.8885C43.321 26.8959 44 27.4371 44 28.2131V33.0329C44 37.0897 40.615 40.3799 36.4372 40.3799H30.1316C29.4796 40.3799 28.9516 39.8669 28.9516 39.2337V35.1749C28.9516 34.3857 28.3134 33.7657 27.501 33.7657C26.708 33.7657 26.0502 34.3857 26.0502 35.1749V39.2337C26.0502 39.8669 25.5222 40.3799 24.8724 40.3799H11.5629C7.40426 40.3799 4 37.0915 4 33.0329V28.2131C4 27.4371 4.67892 26.8959 5.47776 26.8885C6.89748 26.8733 8.04256 25.7515 8.04256 24.3705C8.04256 23.0363 6.9207 22.0217 5.45068 22.0217C5.06382 22.0217 4.69632 21.8713 4.42554 21.6083C4.15474 21.3453 4 20.9883 4 20.6125V15.7457C4 11.6945 7.412 8.37988 11.5822 8.37988H24.8724C25.5222 8.37988 26.0502 8.89286 26.0502 9.5261V14.3364C26.0502 15.1068 26.708 15.7457 27.501 15.7457C28.3134 15.7457 28.9516 15.1068 28.9516 14.3364V9.5261C28.9516 8.89286 29.4796 8.37988 30.1316 8.37988H36.4372C40.615 8.37988 44 11.6682 44 15.7269V20.4621C44 20.8379 43.8452 21.1949 43.5744 21.4579ZM27.501 30.1203C28.3134 30.1203 28.9516 29.4815 28.9516 28.7111V21.1949C28.9516 20.4245 28.3134 19.7856 27.501 19.7856C26.708 19.7856 26.0502 20.4245 26.0502 21.1949V28.7111C26.0502 29.4815 26.708 30.1203 27.501 30.1203Z" fill="white"/>
</svg>
