<svg width="40" height="41" viewBox="0 0 40 41" fill="none" xmlns="http://www.w3.org/2000/svg">
<path fill-rule="evenodd" clip-rule="evenodd" d="M8.55273 3.97775C7.12207 4.97811 5.82837 6.16086 4.70532 7.49228C9.29462 7.06621 15.1252 7.76193 21.8944 11.1466C29.123 14.7608 34.9438 14.883 38.9948 14.1016C38.6272 12.9887 38.1644 11.9191 37.6163 10.9023C32.979 11.3914 27.034 10.744 20.1056 7.27986C15.706 5.08006 11.8278 4.17389 8.55273 3.97775ZM34.9074 7.04653C31.2453 2.95488 25.9234 0.379883 20 0.379883C18.2605 0.379883 16.5727 0.60199 14.9637 1.01936C17.1429 1.61397 19.4579 2.48387 21.8944 3.70215C26.967 6.23841 31.3464 7.05504 34.9074 7.04653ZM39.8609 18.008C34.9669 18.9744 28.2088 18.7759 20.1056 14.7243C12.53 10.9365 6.50043 10.9842 2.4339 11.8879C2.224 11.9345 2.01904 11.9835 1.81903 12.0345C1.28662 13.1924 0.861634 14.41 0.556702 15.6744C0.882386 15.5874 1.21893 15.5047 1.56616 15.4275C6.49957 14.3312 13.4701 14.3788 21.8944 18.591C29.4701 22.3788 35.4996 22.3311 39.5662 21.4274C39.7055 21.3965 39.8428 21.3645 39.9778 21.3315C39.9926 21.0162 40 20.6989 40 20.3799C40 19.5774 39.9528 18.7859 39.8609 18.008ZM39.3248 25.5522C34.4783 26.3995 27.917 26.0743 20.1056 22.1687C12.53 18.3809 6.50043 18.4286 2.4339 19.3323C1.53125 19.5328 0.719239 19.7771 0.00293 20.035C0.000977 20.1497 0 20.2647 0 20.3799C0 31.4256 8.95429 40.3799 20 40.3799C29.2571 40.3799 37.0453 34.0908 39.3248 25.5522Z" fill="url(#paint0_linear_4_1313)"/>
<defs>
<linearGradient id="paint0_linear_4_1313" x1="36" y1="43.5799" x2="-3.73321" y2="35.973" gradientUnits="userSpaceOnUse">
<stop stop-color="#5D50C6"/>
<stop offset="1" stop-color="#F85E9F"/>
</linearGradient>
</defs>
</svg>
